<svg id="B2_Logo" data-name="B2 Logo" xmlns="http://www.w3.org/2000/svg" width="232.671" height="37.434" viewBox="0 0 232.671 37.434">
  <g id="Group_11" data-name="Group 11">
    <path id="Path_2" data-name="Path 2" d="M71.151,29.61,71.1,54.81,48,58.089l.047-25.2Z" transform="translate(-33.753 -20.821)" fill="#fff"/>
    <path id="Path_3" data-name="Path 3" d="M12.122,49.177,0,42.514.047,16.7l12.122,6.663Z" transform="translate(0 -11.743)" fill="#fff"/>
    <path id="Path_4" data-name="Path 4" d="M16.48,10.012,4.37,3.357,28.011,0,40.118,6.655Z" transform="translate(-3.073)" fill="#fff"/>
  </g>
  <path id="Path_5" data-name="Path 5" d="M147.65,62.572c.05-.84.1-2.375.1-3.823V45.06h3.859v6.827h.05a4.222,4.222,0,0,1,3.63-1.692c2.87,0,4.978,2.375,4.954,6.058,0,4.316-2.748,6.476-5.494,6.476a3.984,3.984,0,0,1-3.606-1.938h.039l-.157,1.781Zm3.962-5.117a2.754,2.754,0,0,0,.074.674,2.3,2.3,0,0,0,2.22,1.781c1.621,0,2.618-1.247,2.618-3.44,0-1.9-.849-3.393-2.618-3.393a2.351,2.351,0,0,0-2.22,1.87,3.121,3.121,0,0,0-.074.7Z" transform="translate(-103.825 -31.686)" fill="#fff"/>
  <path id="Path_6" data-name="Path 6" d="M203.478,75.336l-.226-1.187h-.077a4.541,4.541,0,0,1-3.529,1.454,3.715,3.715,0,0,1-3.986-3.636c0-3.075,2.876-4.553,7.239-4.529v-.169c0-.632-.353-1.529-2.244-1.529a7.159,7.159,0,0,0-3.4.89l-.706-2.375a10.519,10.519,0,0,1,4.791-1.042c4.111,0,5.423,2.327,5.423,5.114v4.123a17.864,17.864,0,0,0,.175,2.885Zm-.3-5.69c-1.995-.024-3.541.448-3.541,1.92a1.359,1.359,0,0,0,1.484,1.445,2.078,2.078,0,0,0,1.971-1.4,2.71,2.71,0,0,0,.074-.65Z" transform="translate(-137.585 -44.45)" fill="#fff"/>
  <path id="Path_7" data-name="Path 7" d="M241.525,71.438a7.394,7.394,0,0,0,3.265.923c1.149,0,1.621-.4,1.621-1.021s-.374-.923-1.8-1.4c-2.517-.846-3.491-2.217-3.464-3.666,0-2.268,1.944-3.989,4.96-3.989a8.186,8.186,0,0,1,3.443.7l-.674,2.618a5.984,5.984,0,0,0-2.636-.7c-.92,0-1.445.374-1.445,1,0,.576.475.873,1.971,1.4,2.318.8,3.292,1.968,3.315,3.764,0,2.271-1.8,3.939-5.286,3.939a8.637,8.637,0,0,1-3.939-.846Z" transform="translate(-169.369 -43.799)" fill="#fff"/>
  <path id="Path_8" data-name="Path 8" d="M280.905,70.1c.125,1.57,1.668,2.318,3.44,2.318a10.76,10.76,0,0,0,3.366-.5l.5,2.567a12.042,12.042,0,0,1-4.414.748c-4.138,0-6.506-2.392-6.506-6.206,0-3.093,1.917-6.509,6.156-6.509,3.942,0,5.438,3.066,5.438,6.085a9.307,9.307,0,0,1-.125,1.484Zm4.452-2.671a2.2,2.2,0,0,0-2.143-2.469,2.489,2.489,0,0,0-2.345,2.469Z" transform="translate(-194.986 -43.963)" fill="#fff"/>
  <path id="Path_9" data-name="Path 9" d="M330.53,78.06v2.375H324V78.06Z" transform="translate(-227.832 -54.891)" fill="#fff"/>
  <path id="Path_10" data-name="Path 10" d="M352,64.638V62.2l2.078-1.894c3.511-3.167,5.218-4.986,5.268-6.883,0-1.321-.793-2.375-2.648-2.375a5.789,5.789,0,0,0-3.437,1.348L352.2,49.673A8.842,8.842,0,0,1,357.467,48c3.636,0,5.639,2.146,5.639,5.087,0,2.719-1.956,4.886-4.28,6.981l-1.484,1.247v.05h6.233v3.265Z" transform="translate(-247.521 -33.752)" fill="#fff"/>
  <path id="Path_11" data-name="Path 11" d="M415.492,71.438a7.394,7.394,0,0,0,3.265.923c1.149,0,1.621-.4,1.621-1.021s-.374-.923-1.781-1.4c-2.52-.846-3.491-2.217-3.467-3.666,0-2.268,1.944-3.989,4.963-3.989a8.18,8.18,0,0,1,3.44.7l-.674,2.618a5.981,5.981,0,0,0-2.642-.7c-.923,0-1.448.374-1.448,1,0,.576.475.873,1.971,1.4,2.318.8,3.292,1.968,3.315,3.764,0,2.271-1.8,3.939-5.286,3.939a8.637,8.637,0,0,1-3.939-.846Z" transform="translate(-291.703 -43.799)" fill="#fff"/>
  <path id="Path_12" data-name="Path 12" d="M463.989,68.523a6.125,6.125,0,0,1-6.432,6.509,5.974,5.974,0,0,1-6.307-6.284c0-3.939,2.6-6.459,6.506-6.459A5.938,5.938,0,0,1,463.989,68.523Zm-8.827.125c0,2.1.876,3.666,2.5,3.666,1.484,0,2.416-1.484,2.416-3.666,0-1.819-.7-3.663-2.416-3.663-1.822,0-2.5,1.87-2.5,3.663Z" transform="translate(-317.313 -43.801)" fill="#fff"/>
  <path id="Path_13" data-name="Path 13" d="M502,44.06h3.859V61.869H502Z" transform="translate(-352.999 -30.982)" fill="#fff"/>
  <path id="Path_14" data-name="Path 14" d="M536.576,71.32c0,1.594.05,2.888.1,3.909h-3.321l-.181-1.781h-.137a4.31,4.31,0,0,1-3.784,1.977c-2.449,0-4.253-1.532-4.253-5.26V63.06h3.859v6.557c0,1.781.564,2.843,1.867,2.843a2.015,2.015,0,0,0,1.87-1.324,2.142,2.142,0,0,0,.122-.822V63.06h3.859Z" transform="translate(-369.173 -44.343)" fill="#fff"/>
  <path id="Path_15" data-name="Path 15" d="M576.046,51.3v3.491h2.671v2.671h-2.671v4.414c0,1.469.356,2.143,1.526,2.143a6.366,6.366,0,0,0,1.146-.1l.024,3.007a7.328,7.328,0,0,1-2.428.315,3.882,3.882,0,0,1-2.8-1.03,4.987,4.987,0,0,1-1.03-3.562V57.462H571V54.791h1.484V52.146Z" transform="translate(-401.519 -36.073)" fill="#fff"/>
  <path id="Path_16" data-name="Path 16" d="M608.642,47.238a1.9,1.9,0,0,1-2.045,1.9,1.908,1.908,0,1,1,.027-3.814,1.9,1.9,0,0,1,2.018,1.917Zm-3.9,15.514V50.583H608.6V62.753Z" transform="translate(-425.166 -31.866)" fill="#fff"/>
  <path id="Path_17" data-name="Path 17" d="M638.369,68.523a6.125,6.125,0,0,1-6.432,6.509,5.974,5.974,0,0,1-6.307-6.284c0-3.939,2.591-6.459,6.506-6.459A5.937,5.937,0,0,1,638.369,68.523Zm-8.824.125c0,2.1.873,3.666,2.493,3.666,1.469,0,2.416-1.484,2.416-3.666,0-1.819-.7-3.663-2.416-3.663C630.216,64.985,629.545,66.855,629.545,68.648Z" transform="translate(-439.934 -43.801)" fill="#fff"/>
  <path id="Path_18" data-name="Path 18" d="M675.761,66.61c0-1.52-.05-2.814-.1-3.882h3.419l.187,1.781h.056a4.411,4.411,0,0,1,3.719-1.92c2.449,0,4.295,1.624,4.295,5.168v7.124h-3.859V68.139c0-1.57-.531-2.642-1.858-2.642a1.968,1.968,0,0,0-1.855,1.422,2.635,2.635,0,0,0-.145.947V74.9h-3.859Z" transform="translate(-475.115 -44.011)" fill="#fff"/>
  <path id="Path_19" data-name="Path 19" d="M724.029,71.438a7.394,7.394,0,0,0,3.265.923c1.149,0,1.621-.4,1.621-1.021s-.374-.923-1.781-1.4c-2.517-.846-3.49-2.217-3.464-3.666,0-2.268,1.944-3.989,4.96-3.989a8.186,8.186,0,0,1,3.443.7l-.674,2.618a5.983,5.983,0,0,0-2.645-.7c-.923,0-1.445.374-1.445,1,0,.576.475.873,1.971,1.4,2.318.8,3.289,1.968,3.315,3.764,0,2.271-1.781,3.939-5.286,3.939a8.637,8.637,0,0,1-3.939-.846Z" transform="translate(-508.664 -43.799)" fill="#fff"/>
  <path id="Path_20" data-name="Path 20" d="M768.9,44.749a3.164,3.164,0,1,1-3.152-3.06,3.1,3.1,0,0,1,3.152,3.06Zm-5.378.018a2.232,2.232,0,1,0,.617-1.622A2.226,2.226,0,0,0,763.523,44.767Zm1.849,1.484h-.891V43.419a8.152,8.152,0,0,1,1.276-.089,2.217,2.217,0,0,1,1.167.214.733.733,0,0,1,.3.623c0,.3-.273.534-.674.641h0a1.483,1.483,0,0,1,.543.73,5.025,5.025,0,0,0,.2.718h-.98a2.4,2.4,0,0,1-.2-.647c-.053-.3-.2-.427-.481-.243h-.258Zm0-1.781h.249c.32,0,.534-.125.534-.338s-.2-.356-.5-.356c-.107,0-.214.018-.3.018Z" transform="translate(-536.232 -29.315)" fill="#fff"/>
</svg>
